<svg width="24" height="24" viewBox="0 0 24 24" focusable="false"><g><path fill-rule="evenodd" clip-rule="evenodd" d="M16.808 4.655l2.069 1.978h-.527c-1.656 0-3.312.68-4.458 1.814L12.797 9.75l1.179 1.246 1.317-1.527c.764-.794 1.91-1.247 3.057-1.247h.55l-2.07 2.014 1.178 1.179 4.005-3.993-4.026-3.945-1.178 1.179zm1.974 10.998l-1.974-1.888 1.18-1.179 4.024 3.945-4.004 3.993-1.178-1.179 1.954-1.901h-.434c-1.656 0-3.312-.625-4.458-1.667L8.242 9.8C7.35 9.071 6.204 8.55 4.93 8.55H2l.006-1.794 2.965.003c1.784 0 3.312.521 4.459 1.563l5.904 6.185c.765.73 1.911 1.146 3.058 1.146h.39zm-9.02-2.092l-1.52 1.394c-.892.793-2.038 1.36-3.312 1.36H2v1.588h2.93c1.783 0 3.312-.567 4.459-1.701l1.537-1.396-1.164-1.245z"></path></g></svg>