<?xml version="1.0" standalone="no"?>
<!DOCTYPE svg PUBLIC "-//W3C//DTD SVG 20010904//EN"
 "http://www.w3.org/TR/2001/REC-SVG-20010904/DTD/svg10.dtd">
<svg version="1.0" xmlns="http://www.w3.org/2000/svg"
 width="624.000000pt" height="624.000000pt" viewBox="0 0 624.000000 624.000000"
 preserveAspectRatio="xMidYMid meet">
<metadata>
Created by potrace 1.14, written by Peter Selinger 2001-2017
</metadata>
<g transform="translate(0.000000,624.000000) scale(0.100000,-0.100000)"
fill="#000000" stroke="none">
<path d="M4230 5162 c-17 -15 -201 -313 -410 -662 -209 -349 -384 -638 -388
-642 -4 -4 -29 14 -57 39 -27 25 -88 80 -134 122 -46 42 -93 85 -105 96 -116
105 -185 167 -205 184 -12 11 -66 60 -119 108 -52 48 -107 99 -121 111 -14 13
-61 56 -104 95 -43 39 -87 78 -96 87 -10 8 -60 53 -111 100 -51 47 -99 89
-106 93 -8 5 -38 4 -67 -2 -48 -9 -72 -13 -167 -27 -19 -3 -46 -7 -60 -9 -40
-7 -78 -13 -195 -30 -60 -9 -121 -18 -135 -21 -14 -2 -41 -7 -60 -10 -19 -3
-64 -10 -100 -16 -36 -6 -81 -12 -100 -14 -19 -1 -35 -3 -35 -4 0 -1 -11 -3
-25 -6 -102 -16 -152 -24 -195 -30 -64 -8 -87 -12 -92 -17 -2 -2 26 -31 63
-63 36 -32 81 -72 99 -89 42 -39 91 -83 194 -175 47 -41 105 -94 130 -117 78
-72 84 -77 170 -154 47 -41 96 -85 111 -99 15 -14 57 -52 94 -85 37 -33 80
-71 95 -85 15 -14 65 -59 111 -100 46 -41 94 -84 105 -95 12 -11 39 -35 61
-54 21 -19 79 -70 128 -115 50 -45 108 -98 130 -118 23 -20 59 -53 80 -72 22
-20 45 -36 50 -36 10 0 17 7 111 115 l49 57 -39 35 c-22 20 -61 54 -86 77 -25
22 -79 70 -119 106 -40 36 -85 76 -100 90 -31 28 -157 142 -200 180 -32 29
-159 144 -199 180 -16 14 -61 54 -101 90 -40 36 -85 76 -100 90 -60 55 -194
176 -210 190 -9 8 -34 30 -55 48 -20 18 -35 35 -33 37 4 4 50 13 98 20 14 2
39 6 55 9 17 2 48 7 70 10 22 3 96 15 165 25 69 11 142 23 164 26 21 3 41 7
45 10 4 2 19 -6 33 -18 28 -25 184 -165 202 -183 6 -5 61 -55 121 -109 61 -55
119 -108 131 -120 11 -11 56 -51 99 -90 43 -38 98 -88 122 -110 25 -22 57 -51
72 -65 58 -52 217 -197 269 -246 53 -49 54 -51 39 -75 -8 -13 -44 -76 -80
-139 -35 -63 -73 -131 -84 -150 -11 -19 -34 -60 -50 -90 -17 -30 -47 -84 -67
-118 -20 -35 -36 -68 -36 -73 0 -12 -250 -429 -257 -429 -3 0 -3 6 0 14 3 8 3
17 0 20 -3 3 -7 18 -8 33 -7 71 -40 192 -70 258 -7 17 -19 43 -24 59 -6 15
-31 59 -56 97 -25 38 -45 71 -45 73 0 12 -128 147 -189 199 -78 67 -296 187
-341 187 -10 0 -21 4 -24 9 -6 8 -14 10 -145 35 -104 19 -251 20 -351 1 -47
-9 -98 -18 -113 -21 -34 -6 -181 -65 -228 -91 -191 -105 -337 -250 -442 -441
-25 -45 -43 -82 -40 -82 3 0 1 -6 -4 -12 -15 -19 -60 -157 -67 -203 -3 -22 -8
-53 -12 -70 -3 -16 -7 -75 -8 -130 -2 -86 4 -143 28 -275 19 -105 125 -330
183 -388 7 -7 13 -16 13 -20 0 -15 139 -152 206 -204 108 -83 294 -171 404
-191 14 -3 36 -8 50 -11 55 -12 119 -17 200 -17 79 0 178 9 190 16 3 2 25 6
49 10 53 8 225 71 261 95 14 9 33 20 43 23 65 24 242 180 320 282 48 64 217
339 217 354 0 5 3 11 8 13 9 4 142 226 142 238 0 5 3 10 8 12 6 2 79 123 216
355 17 29 33 53 36 53 7 0 100 -83 260 -230 15 -14 64 -59 109 -100 46 -41 98
-88 115 -105 32 -30 183 -167 235 -214 14 -13 53 -49 87 -80 33 -31 105 -96
159 -146 55 -49 106 -97 115 -105 92 -86 95 -88 141 -80 24 5 62 11 84 14 22
4 51 8 65 11 14 2 45 6 70 9 25 3 55 8 66 10 30 6 80 14 139 22 28 3 59 8 70
10 24 5 124 21 180 29 23 3 50 7 62 9 21 5 37 7 168 26 44 7 89 14 100 16 11
2 40 7 65 10 25 3 49 8 53 11 4 2 -21 35 -57 71 -35 37 -87 92 -116 122 -59
61 -296 309 -780 811 -96 100 -200 207 -230 239 -305 318 -306 319 -322 302
-8 -9 -46 -47 -85 -84 l-71 -66 51 -55 c49 -51 313 -326 510 -530 49 -51 162
-168 252 -262 90 -93 209 -217 264 -274 55 -58 99 -106 98 -107 -1 -1 -24 -5
-51 -8 -27 -4 -52 -9 -55 -11 -3 -1 -28 -6 -56 -9 -53 -6 -71 -9 -205 -31 -94
-16 -158 -25 -209 -30 -35 -4 -38 -2 -156 110 -29 28 -72 67 -96 89 -37 33
-134 121 -249 226 -137 126 -216 198 -232 212 -11 10 -64 58 -118 108 -54 50
-108 100 -121 111 -132 113 -174 161 -151 171 5 2 29 41 55 88 26 47 61 110
78 140 17 30 47 84 67 120 19 36 39 70 43 76 8 10 32 54 66 119 6 11 18 36 26
55 17 37 59 112 67 120 5 5 230 378 256 425 22 39 263 440 271 451 8 10 16 24
53 88 9 17 28 48 40 70 l23 39 46 -50 c46 -49 198 -215 242 -264 23 -24 154
-168 209 -229 14 -15 61 -67 105 -115 44 -49 92 -102 106 -117 15 -16 60 -65
100 -109 41 -45 91 -100 112 -123 21 -22 62 -67 90 -100 29 -32 68 -75 87 -95
19 -21 73 -79 120 -131 114 -125 109 -120 133 -121 51 -4 72 2 94 23 39 40 38
104 -1 144 -6 6 -45 48 -86 94 -41 46 -86 95 -100 110 -14 15 -58 64 -99 109
-41 45 -90 99 -110 121 -20 21 -64 69 -98 107 -33 37 -78 87 -100 110 -21 23
-69 76 -108 119 -38 42 -83 92 -100 109 -16 18 -64 70 -105 116 -41 45 -86 94
-100 109 -14 15 -47 51 -74 81 -313 347 -326 360 -369 364 -30 3 -44 -2 -67
-23z m-2500 -1736 c65 -10 106 -18 120 -23 8 -4 17 -7 20 -8 179 -46 383 -203
494 -379 29 -46 76 -139 76 -150 0 -3 5 -17 12 -33 6 -15 13 -39 15 -52 2 -13
10 -46 17 -75 9 -34 13 -95 11 -181 -3 -106 -8 -145 -29 -215 -15 -47 -28 -90
-29 -95 -6 -26 -74 -145 -110 -195 -40 -54 -174 -190 -188 -190 -4 0 -14 -6
-21 -12 -50 -47 -232 -126 -324 -142 -16 -3 -45 -8 -64 -11 -56 -10 -210 -7
-270 5 -30 6 -66 14 -80 16 -50 10 -177 66 -246 109 -103 64 -242 205 -275
279 -7 14 -16 26 -21 26 -4 0 -8 9 -8 19 0 11 -4 21 -8 23 -16 6 -64 141 -82
228 -17 81 -20 252 -6 335 17 100 75 240 141 340 59 89 255 272 274 257 2 -2
7 1 10 6 8 12 111 64 111 56 0 -4 6 -2 13 3 28 23 136 51 232 60 33 3 61 7 63
8 3 3 118 -4 152 -9z"/>
</g>
</svg>
