<svg width="24" height="23" viewBox="0 0 24 23" fill="none" xmlns="http://www.w3.org/2000/svg">
<path d="M11.5898 22.0931C11.8465 22.2595 12.2788 22.4585 12.2788 22.4585L13.4847 21.7277L16.0686 19.3526C16.0686 19.3526 17.3719 18.1239 18.1357 17.3429C18.8995 16.5619 19.455 15.9497 20.2029 14.9678C20.7778 14.2129 21.0739 13.7659 21.5809 12.9581L22.4423 11.4965C22.7786 10.9257 22.9077 10.2875 23.1313 9.48674C23.1313 9.48674 23.4187 8.61036 23.4758 8.02513C23.5174 7.5993 23.4972 7.35641 23.4758 6.92892C23.4471 6.35449 23.4299 6.02673 23.3036 5.46731C23.2045 5.02846 23.121 4.78836 22.959 4.3711C22.7872 3.92852 22.6991 3.66841 22.4423 3.27489C22.1173 2.77712 21.8703 2.53477 21.4087 2.17868C20.9221 1.80333 20.5958 1.66661 20.0306 1.44787C19.5095 1.24621 18.6525 1.08247 18.6525 1.08247C18.6525 1.08247 18.0218 1.05563 17.6189 1.08247C16.8683 1.13249 16.4337 1.18364 15.7241 1.44787C15.1563 1.65926 14.346 2.17868 14.346 2.17868C14.346 2.17868 13.5359 2.64442 13.1401 3.09219C12.8084 3.46754 12.4511 4.1884 12.4511 4.1884C12.4511 4.1884 12.1536 3.72812 11.9343 3.45759C11.6862 3.15152 11.2453 2.72678 11.2453 2.72678L10.5562 2.17868L9.52265 1.63058C9.52265 1.63058 8.81564 1.20647 8.31682 1.08247C7.66185 0.919659 7.2658 1.04106 6.59421 1.08247C5.98606 1.11997 5.63087 1.09248 5.04386 1.26517C4.55017 1.41041 3.83803 1.81328 3.83803 1.81328L2.80446 2.54408C2.80446 2.54408 2.22841 3.17232 1.94316 3.64029C1.36997 4.58064 1.20857 5.24362 1.069 6.35354C0.969846 7.14207 0.980559 7.60231 1.08186 8.39053C1.18694 9.20815 1.33105 9.6578 1.61149 10.4275C1.87855 11.1605 2.09515 11.5433 2.45994 12.2273C2.77241 12.8131 2.95779 13.1371 3.32125 13.6889C3.97732 14.6849 4.41959 15.1907 5.21612 16.064C5.41457 16.2816 5.53109 16.398 5.73291 16.6121L7.28326 18.2564C7.48507 18.4705 7.58552 18.6048 7.80004 18.8045C8.05286 19.0398 8.48909 19.3526 8.48909 19.3526C8.48909 19.3526 8.69666 19.5779 8.83361 19.718C9.28 20.1747 9.56055 20.3962 10.0394 20.8142C10.372 21.1045 10.5597 21.2659 10.9007 21.545C11.167 21.763 11.3028 21.9071 11.5898 22.0931Z" stroke="white" stroke-width="0.75"/>
</svg>
