<svg width="22" height="18" viewBox="0 0 22 18"  xmlns="http://www.w3.org/2000/svg">
<path d="M5.87313 14.129C4.02813 12.819 2.56813 11.115 1.74313 10.039C1.51244 9.74198 1.38721 9.37659 1.38721 9.0005C1.38721 8.62441 1.51244 8.25902 1.74313 7.962C3.23613 6.013 6.81813 2 11.0001 2C12.8761 2 14.6301 2.807 16.1301 3.874" stroke="black" stroke-width="2" stroke-linecap="round" stroke-linejoin="round"/>
<path d="M13.13 6.887C12.8523 6.60467 12.5214 6.38011 12.1565 6.22628C11.7916 6.07246 11.3998 5.99241 11.0038 5.99075C10.6078 5.98909 10.2153 6.06586 9.84913 6.21662C9.48293 6.36738 9.1502 6.58916 8.87014 6.86915C8.59008 7.14915 8.36822 7.48182 8.21738 7.84799C8.06653 8.21416 7.98967 8.60657 7.99123 9.00258C7.9928 9.3986 8.07276 9.79039 8.2265 10.1554C8.38024 10.5203 8.60472 10.8512 8.88698 11.129" stroke="black" stroke-width="2" stroke-linecap="round" stroke-linejoin="round"/>
<path d="M3 17L19 1" stroke="black" stroke-width="2" stroke-linecap="round" stroke-linejoin="round"/>
<path d="M9 15.704C9.6492 15.8972 10.3227 15.9969 11 16C15.182 16 18.764 11.987 20.257 10.038C20.4876 9.74071 20.6127 9.37509 20.6125 8.99883C20.6124 8.62256 20.4869 8.25707 20.256 7.96C19.7313 7.27549 19.1684 6.62112 18.57 6" stroke="black" stroke-width="2" stroke-linecap="round" stroke-linejoin="round"/>
</svg>
