<svg width="28" height="28" viewBox="0 0 28 28" fill="none" xmlns="http://www.w3.org/2000/svg">
<path d="M13.8834 4.375C8.57503 4.375 4.2817 8.69167 4.2817 14H1.07336L5.23836 18.165L5.28503 18.3167L9.6017 14H6.4167C6.4167 9.87 9.76503 6.51 13.9067 6.51C18.0367 6.51 21.3734 9.87 21.3734 14C21.3734 18.13 18.0367 21.49 13.9067 21.49C11.83 21.49 9.96336 20.6383 8.61003 19.2733L7.09336 20.79C8.84336 22.54 11.235 23.625 13.895 23.625C19.2384 23.625 23.555 19.3083 23.555 14C23.555 8.68 19.2384 4.375 13.9184 4.375H13.8834ZM12.8334 9.71833V15.085L17.4067 17.7683L18.1767 16.485L14.4434 14.2683V9.71833H12.8334Z" fill="white" fill-opacity="0.6"/>
</svg>

