<svg width="75" height="78" viewBox="0 0 75 78" fill="none" xmlns="http://www.w3.org/2000/svg">
<path d="M32.8113 36.3665L14.7737 20.1439L26.3964 18.3465L41.4224 31.9871L37.2082 39.4599L52.4198 53.362L63.6173 51.6304L46.8492 34.1956" stroke="white" stroke-width="3"/>
<path d="M70.3967 32.6337L53.0191 13.564C52.8894 13.4216 52.7281 13.3115 52.5483 13.2425C52.3684 13.1735 52.1749 13.1475 51.9833 13.1666C51.7916 13.1857 51.607 13.2493 51.4443 13.3524C51.2816 13.4555 51.1452 13.5952 51.0461 13.7604L32.1764 45.216C31.9416 41.9814 30.557 38.9377 28.273 36.6353C25.9891 34.3329 22.9566 32.9239 19.724 32.663C16.4915 32.4022 13.2723 33.3068 10.6487 35.2131C8.02511 37.1195 6.17036 39.9018 5.41991 43.0569C4.66945 46.2119 5.07283 49.5314 6.5571 52.4148C8.04137 55.2983 10.5085 57.5554 13.5123 58.7779C16.5161 60.0005 19.8583 60.1077 22.9343 59.0802C26.0103 58.0527 28.617 55.9584 30.2831 53.176L52.311 16.4557L68.5699 34.2978C68.6788 34.4192 68.8106 34.5178 68.9578 34.588C69.105 34.6582 69.2646 34.6986 69.4274 34.7068C69.5903 34.715 69.7531 34.6909 69.9066 34.6359C70.0601 34.5809 70.2012 34.496 70.3218 34.3862C70.4423 34.2764 70.5399 34.1438 70.609 33.9961C70.678 33.8484 70.7172 33.6885 70.7241 33.5256C70.7311 33.3627 70.7058 33.2 70.6496 33.0469C70.5934 32.8938 70.5074 32.7534 70.3967 32.6337ZM12.9073 55.7203C11.0212 54.5889 9.51304 52.9236 8.57342 50.935C7.6338 48.9464 7.30497 46.7239 7.6285 44.5484C7.95203 42.3729 8.91339 40.3423 10.391 38.7132C11.8687 37.0841 13.7962 35.9298 15.9299 35.3961C18.0635 34.8625 20.3075 34.9736 22.3781 35.7153C24.4486 36.4571 26.2527 37.7961 27.5622 39.5632C28.8718 41.3302 29.6279 43.4459 29.735 45.6427C29.8421 47.8395 29.2953 50.0187 28.1639 51.9048C26.6445 54.4313 24.1848 56.252 21.3246 56.9673C18.4644 57.6826 15.4372 57.2342 12.9073 55.7203Z" fill="white"/>
</svg>
