<svg width="323" height="83" viewBox="0 0 323 83" fill="none" xmlns="http://www.w3.org/2000/svg">
<path d="M114.756 51.504C117.604 51.504 119.828 50.96 121.428 49.872C123.06 48.752 123.876 47.168 123.876 45.12C123.876 43.68 123.508 42.496 122.772 41.568C122.036 40.64 121.06 39.968 119.844 39.552C118.66 39.136 117.348 38.784 115.908 38.496C114.5 38.208 113.076 37.888 111.636 37.536C110.196 37.184 108.868 36.72 107.652 36.144C106.468 35.568 105.508 34.672 104.772 33.456C104.036 32.208 103.668 30.656 103.668 28.8C103.668 26.176 104.708 23.92 106.788 22.032C108.868 20.144 111.716 19.2 115.332 19.2C119.012 19.2 121.876 20.224 123.924 22.272C125.972 24.32 127.028 26.976 127.092 30.24H123.684C123.62 27.872 122.836 25.968 121.332 24.528C119.86 23.088 117.876 22.368 115.38 22.368C112.82 22.368 110.804 22.944 109.332 24.096C107.892 25.216 107.172 26.736 107.172 28.656C107.172 30 107.54 31.104 108.276 31.968C109.044 32.8 110.02 33.424 111.204 33.84C112.388 34.256 113.7 34.608 115.14 34.896C116.58 35.152 118.02 35.488 119.46 35.904C120.9 36.288 122.212 36.784 123.396 37.392C124.58 38 125.54 38.944 126.276 40.224C127.044 41.472 127.428 43.024 127.428 44.88C127.428 47.824 126.244 50.192 123.876 51.984C121.54 53.776 118.468 54.672 114.66 54.672C110.532 54.672 107.412 53.648 105.3 51.6C103.188 49.52 102.068 46.88 101.94 43.68H105.396C105.588 46.208 106.516 48.144 108.18 49.488C109.844 50.832 112.036 51.504 114.756 51.504ZM145.929 54.576C142.217 54.576 139.209 53.328 136.905 50.832C134.633 48.304 133.497 45.296 133.497 41.808C133.497 38.288 134.633 35.28 136.905 32.784C139.209 30.256 142.217 28.992 145.929 28.992C149.673 28.992 152.681 30.256 154.953 32.784C157.257 35.28 158.409 38.288 158.409 41.808C158.409 45.296 157.257 48.304 154.953 50.832C152.681 53.328 149.673 54.576 145.929 54.576ZM136.953 41.808C136.953 44.592 137.785 46.912 139.449 48.768C141.113 50.592 143.273 51.504 145.929 51.504C148.617 51.504 150.793 50.592 152.457 48.768C154.121 46.912 154.953 44.592 154.953 41.808C154.953 38.992 154.121 36.672 152.457 34.848C150.793 32.992 148.617 32.064 145.929 32.064C143.241 32.064 141.065 32.992 139.401 34.848C137.769 36.672 136.953 38.992 136.953 41.808ZM182.352 44.016V29.568H185.76V54H182.496V50.448C181.952 51.472 181.008 52.416 179.664 53.28C178.352 54.144 176.656 54.576 174.576 54.576C171.632 54.576 169.376 53.728 167.808 52.032C166.24 50.304 165.456 48.032 165.456 45.216V29.568H168.864V44.496C168.864 49.232 170.96 51.6 175.152 51.6C177.232 51.6 178.944 50.96 180.288 49.68C181.664 48.368 182.352 46.48 182.352 44.016ZM198.163 29.568V33.312C198.739 32.224 199.699 31.232 201.043 30.336C202.387 29.44 204.115 28.992 206.227 28.992C209.171 28.992 211.443 29.856 213.043 31.584C214.675 33.312 215.491 35.584 215.491 38.4V54H212.083V39.072C212.083 36.8 211.539 35.056 210.451 33.84C209.395 32.592 207.795 31.968 205.651 31.968C203.507 31.968 201.747 32.624 200.371 33.936C198.995 35.248 198.307 37.088 198.307 39.456V54H194.899V29.568H198.163ZM243.153 33.984V18H246.561V54H243.297V49.488C241.473 52.88 238.385 54.576 234.033 54.576C230.449 54.576 227.633 53.344 225.585 50.88C223.537 48.384 222.513 45.36 222.513 41.808C222.513 38.224 223.537 35.2 225.585 32.736C227.633 30.24 230.449 28.992 234.033 28.992C238.257 28.992 241.297 30.656 243.153 33.984ZM243.297 41.808C243.297 38.992 242.529 36.672 240.993 34.848C239.457 32.992 237.361 32.064 234.705 32.064C232.049 32.064 229.921 32.992 228.321 34.848C226.753 36.704 225.969 39.024 225.969 41.808C225.969 44.56 226.753 46.864 228.321 48.72C229.921 50.576 232.049 51.504 234.705 51.504C237.361 51.504 239.457 50.576 240.993 48.72C242.529 46.864 243.297 44.56 243.297 41.808ZM267.6 29.376V32.592C267.216 32.56 266.816 32.544 266.4 32.544C264.224 32.544 262.464 33.2 261.12 34.512C259.776 35.792 259.104 37.664 259.104 40.128V54H255.696V29.568H258.96V33.36C259.536 32.304 260.48 31.376 261.792 30.576C263.104 29.744 264.768 29.328 266.784 29.328L267.6 29.376ZM294.084 42.768H273.78C273.94 45.328 274.804 47.424 276.372 49.056C277.94 50.688 279.972 51.504 282.468 51.504C284.292 51.504 285.892 51.04 287.268 50.112C288.644 49.152 289.604 47.904 290.148 46.368H293.7C292.964 48.8 291.604 50.784 289.62 52.32C287.636 53.824 285.236 54.576 282.42 54.576C278.708 54.576 275.764 53.344 273.588 50.88C271.444 48.384 270.372 45.344 270.372 41.76C270.372 38.24 271.476 35.232 273.684 32.736C275.924 30.24 278.82 28.992 282.372 28.992C285.924 28.992 288.772 30.192 290.916 32.592C293.06 34.96 294.132 37.92 294.132 41.472L294.084 42.768ZM282.372 32.064C280.068 32.064 278.148 32.816 276.612 34.32C275.076 35.792 274.164 37.68 273.876 39.984H290.724C290.5 37.584 289.636 35.664 288.132 34.224C286.66 32.784 284.74 32.064 282.372 32.064ZM320.394 29.568L310.698 41.616L320.73 54H316.458L308.682 44.208L300.906 54H296.73L306.666 41.664L296.97 29.568H301.194L308.73 39.024L316.218 29.568H320.394Z" fill="white"/>
<path d="M35.0126 38.7901L15.7729 21.4865L28.1701 19.5693L44.1974 34.1188L39.7025 42.0896L55.9277 56.9182L67.8714 55.0711L49.986 36.4745" stroke="white" stroke-width="3"/>
<path d="M75.108 34.8159L56.5705 14.4702C56.4322 14.3183 56.2602 14.2008 56.0683 14.1272C55.8764 14.0536 55.67 14.0259 55.4655 14.0463C55.261 14.0667 55.0641 14.1346 54.8904 14.2447C54.7168 14.3547 54.5713 14.5038 54.4656 14.6801L34.3294 48.2468C34.0793 44.7954 32.6025 41.5479 30.1661 39.0914C27.7297 36.635 24.4945 35.1319 21.0458 34.854C17.597 34.5761 14.1624 35.5418 11.3631 37.5763C8.56374 39.6108 6.58456 42.5799 5.78348 45.9465C4.9824 49.3131 5.41232 52.8551 6.99548 55.9316C8.57864 59.0082 11.2105 61.4163 14.4151 62.7203C17.6197 64.0244 21.1853 64.1384 24.4672 63.0416C27.7491 61.9448 30.5305 59.7098 32.3084 56.7406L55.8147 17.5559L73.1588 36.5918C73.2749 36.7213 73.4155 36.8265 73.5726 36.9014C73.7296 36.9763 73.8999 37.0193 74.0736 37.0281C74.2473 37.0368 74.4211 37.0111 74.5849 36.9524C74.7486 36.8936 74.8992 36.8031 75.0278 36.6859C75.1564 36.5687 75.2606 36.4272 75.3343 36.2696C75.408 36.112 75.4497 35.9413 75.4572 35.7675C75.4646 35.5937 75.4376 35.4201 75.3777 35.2568C75.3177 35.0935 75.2261 34.9436 75.108 34.8159ZM13.77 59.4578C11.7579 58.2508 10.1491 56.4741 9.14687 54.3523C8.14467 52.2306 7.79413 49.8591 8.1396 47.5377C8.48506 45.2164 9.51101 43.0495 11.0877 41.311C12.6644 39.5725 14.721 38.3405 16.9975 37.7708C19.2739 37.2012 21.668 37.3194 23.877 38.1106C26.0859 38.9017 28.0105 40.3303 29.4074 42.2156C30.8043 44.101 31.6107 46.3584 31.7246 48.7024C31.8386 51.0464 31.255 53.3718 30.0477 55.3844C28.4262 58.0806 25.8018 60.0237 22.7502 60.7873C19.6985 61.5509 16.469 61.0728 13.77 59.4578Z" fill="white"/>
</svg>
