<svg width="29" height="29" viewBox="0 0 29 29" fill="none" xmlns="http://www.w3.org/2000/svg">
<path d="M14.5 18.9615C16.964 18.9615 18.9615 16.964 18.9615 14.5C18.9615 12.036 16.964 10.0385 14.5 10.0385C12.036 10.0385 10.0385 12.036 10.0385 14.5C10.0385 16.964 12.036 18.9615 14.5 18.9615Z" stroke="#B3B3B3" stroke-width="2"/>
<path d="M12.5864 3.19326C13.4526 1.74775 15.5473 1.74775 16.4135 3.19326L17.2007 4.50693C17.7058 5.34992 18.7032 5.76303 19.6565 5.52414L21.142 5.15186C22.7766 4.74223 24.2577 6.22337 23.8481 7.85799L23.4758 9.34351C23.2369 10.2968 23.65 11.2942 24.4931 11.7993L25.8068 12.5864C27.2522 13.4526 27.2522 15.5473 25.8068 16.4135L24.4931 17.2007C23.65 17.7058 23.2369 18.7032 23.4758 19.6565L23.8481 21.142C24.2577 22.7766 22.7766 24.2577 21.142 23.8481L19.6565 23.4758C18.7032 23.2369 17.7058 23.6501 17.2007 24.4931L16.4135 25.8068C15.5473 27.2522 13.4526 27.2522 12.5864 25.8068L11.7993 24.4931C11.2942 23.6501 10.2968 23.2369 9.34351 23.4758L7.85798 23.8481C6.22337 24.2577 4.74223 22.7766 5.15186 21.142L5.52413 19.6565C5.76303 18.7032 5.34992 17.7058 4.50691 17.2007L3.19326 16.4135C1.74775 15.5473 1.74775 13.4526 3.19326 12.5864L4.50693 11.7993C5.34992 11.2942 5.76303 10.2968 5.52413 9.34351L5.15186 7.85798C4.74223 6.22337 6.22337 4.74223 7.85799 5.15186L9.34351 5.52414C10.2968 5.76303 11.2942 5.34992 11.7993 4.50692L12.5864 3.19326Z" stroke="#B3B3B3" stroke-width="2"/>
</svg>
