<svg width="24" height="24" viewBox="0 0 24 24" focusable="false" >
    <g >
    <path d="M16.94 6.9l-1.4 1.46C16.44 9.3 17 10.58 17 12s-.58 2.7-1.48 3.64l1.4 1.45C18.22 15.74 19 13.94 19 12s-.8-3.8-2.06-5.1zM23 12c0-3.12-1.23-5.95-3.23-8l-1.4 1.45C19.97 7.13 21 9.45 21 12s-1 4.9-2.64 6.55l1.4 1.45c2-2.04 3.24-4.87 3.24-8zM7.06 17.1l1.4-1.46C7.56 14.7 7 13.42 7 12s.6-2.7 1.5-3.64L7.08 6.9C5.78 8.2 5 10 5 12s.8 3.8 2.06 5.1zM1 12c0 3.12 1.23 5.95 3.23 8l1.4-1.45C4.03 16.87 3 14.55 3 12s1-4.9 2.64-6.55L4.24 4C2.24 6.04 1 8.87 1 12zm9-3.32v6.63l5-3.3-5-3.3z" ></path>
    </g>
</svg>